<svg id="Layer_1" data-name="Layer 1" xmlns="http://www.w3.org/2000/svg" viewBox="0 0 2001.31 291.36"><defs><style>.cls-1{fill:#fff;}.cls-2{fill:#fefefe;}</style></defs><title>Airware_white-logo</title><path class="cls-1" d="M-362.87,785.26q-14,9.52-28,19c-26.43,17.92-52.9,35.77-79.26,53.79a37,37,0,0,1-21.48,6.77q-221.17-.15-442.34-.28c-1.36,0-3.32.9-4-.93-.76-2,1.22-2.79,2.57-3.7l105.8-71.51a27.5,27.5,0,0,1,16-4.59c34.49.09,69,0,103.46,0h346.69Z" transform="translate(938.11 -765.96)"/><path class="cls-1" d="M311.64,915c-2.75,10.72-5.26,20.47-7.76,30.21q-13.23,51.61-26.39,103.25c-.64,2.51-1.48,3.49-4.22,3.47q-26-.2-52,0c-3.11,0-4.34-1.2-5.23-4q-19.41-60.41-39-120.76c-.86-2.66-.79-4.44,1.93-6.22,14.6-9.58,29.05-19.39,43.56-29.11a19.26,19.26,0,0,1,1.89-1l24.83,90.44c2.93-.81,2.58-3.22,3-4.95q14.42-57.22,28.7-114.48c1.17-4.67,2.58-9.29,3.53-14,.5-2.47,1.54-3.12,3.95-3.11q24.5.15,49,0c2.64,0,3.76.76,4.39,3.32q10.58,42.54,21.34,85c4.26,16.88,8.61,33.74,13.26,51.94,5.48-20,10.6-38.71,15.7-57.4Q402.6,889.23,413,850.79c1-3.81,2.58-5.83,7.15-5.74,16.49.31,33,.19,49.5.07,3.29,0,3.88.65,2.83,3.94q-31.66,99.6-63,199.3c-.86,2.74-2.13,3.2-4.57,3.19-17.33-.07-34.67-.17-52,.07-3.52,0-4-1.74-4.69-4.24q-16.65-62.55-33.4-125.07C314.25,920.14,314.16,917.71,311.64,915Z" transform="translate(938.11 -765.96)"/><path class="cls-1" d="M-937.31,962.65c0-2.71,1.76-3.76,3.4-4.87q42.68-29,85.35-58.1a22.24,22.24,0,0,1,13.1-3.85q151.42.11,302.84.06a18.3,18.3,0,0,1,2,0c.93.1,2.18-.46,2.67.7.63,1.48-.78,2-1.68,2.61-6.45,4.4-12.89,8.82-19.42,13.11-18.35,12-36.62,24.22-54.23,37.32a66.63,66.63,0,0,1-40.88,13.49q-145.92-.06-291.84-.31A12.69,12.69,0,0,1-937.31,962.65Z" transform="translate(938.11 -765.96)"/><path class="cls-1" d="M95.83,878.47c8.87-11.74,17.82-22.75,30.92-29.18,23.14-11.37,46.05-9.2,68.4,2.55,5.13,2.7,9.81,6.23,14.74,9.31,2.1,1.31,2.39,2.17.09,3.82-14.72,10.59-29.5,21.07-44.8,30.82-2.08,1.33-4,2.32-6.83,1.19-29-11.77-47,8.17-54.52,28.91-4,11.05-5,22.69-5,34.39,0,28.65-.13,57.3.12,85.95,0,4.6-1.31,5.45-5.55,5.38-15.32-.26-30.65-.2-46,0-3.51,0-4.41-1.06-4.55-4.48C40.76,992.18,41,937.23,41.21,882.29c0-11.14.68-22.28.91-33.43.06-2.92.51-4.48,4.11-4.46q22.7.16,45.4-.32c3.74-.08,4.33,1.31,4.27,4.59C95.71,858.6,95.83,868.54,95.83,878.47Z" transform="translate(938.11 -765.96)"/><path class="cls-1" d="M771.11,878.19c7-8.31,12.75-15.93,20.24-22.15,16.51-13.71,35.44-18.17,56.36-16.2,1.95.18,2.49.83,2.49,2.7q-.09,24.49,0,49c0,4.15-2.89,2.44-4.51,2.15a77.46,77.46,0,0,0-29.26-.11c-22,4.36-34.36,18.2-39.31,39.39-2.75,11.74-2.85,23.68-2.7,35.7.31,25.82.08,51.64.12,77.46,0,4-1.76,5.5-5.81,5.45q-24-.24-48,0c-3,0-4-.64-4-3.83q.17-99,.05-197.91c0-3.66,1.35-5.18,4.79-5.32,1.49-.06,3-.33,4.47-.32,13.8.08,27.6.33,41.4.22,3.38,0,3.74,1.28,3.7,4.1C771,858,771.11,867.46,771.11,878.19Z" transform="translate(938.11 -765.96)"/><path class="cls-1" d="M-50.51,948.52c0-32.66.13-65.31-.14-98,0-5,1.42-5.94,6.08-5.84q22.23.47,44.48,0c4.47-.1,5.54,1.24,5.6,5.44.26,17,1.17,33.94,1.25,50.91.2,40.15.12,80.3,0,120.44,0,8.65-.69,17.29-.8,25.94,0,3.42-1.14,4.53-4.65,4.48-15.66-.19-31.32-.22-47,0-3.94.06-5-1-5-4.94C-50.44,1014.17-50.51,981.35-50.51,948.52Z" transform="translate(938.11 -765.96)"/><path class="cls-1" d="M-768.23,994q45.46,0,90.92,0c1.73,0,4.25-.95,5,.95.83,2.06-1.77,2.92-3.14,3.85q-28.47,19.29-57.06,38.42c-5.16,3.47-10.93,4.61-17.06,4.6q-85.91-.19-171.83-.33c-2.33,0-4.65.19-7,.22-1.51,0-3.21,0-3.71-1.77s1-2.6,2.25-3.46q18.42-12.36,36.82-24.76c6.06-4.09,12.12-8.17,18.12-12.36a28.85,28.85,0,0,1,17.23-5.46C-827.85,994.09-798,994-768.23,994Z" transform="translate(938.11 -765.96)"/><path class="cls-1" d="M-22.57,766.17c8.16,0,16.32.12,24.47-.06,3-.07,4.06.6,4,3.82-.19,12.82-.15,25.64,0,38.45,0,2.73-.72,3.67-3.52,3.9a353.48,353.48,0,0,1-48.84.36c-3.22-.18-4.53-1-4.46-4.62.25-12.65.19-25.3,0-38,0-3,.68-4.06,3.86-4C-38.89,766.32-30.73,766.17-22.57,766.17Z" transform="translate(938.11 -765.96)"/><path class="cls-2" d="M-68.3,1046.71c-11.44-29.89-22.6-59.9-33.85-89.86q-35.35-94.08-70.63-188.18c-.82-2.18-1.83-2.72-3.94-2.71q-29.49.09-59,0c-2.35,0-3.63.76-4.42,3-1.82,5.16-3.86,10.24-5.8,15.36q-28,74-56.1,147.93-22,57.92-44,115.8c-1.22,3.18-.89,3.86,2.56,3.83q28-.21,56,0c3,0,4.4-1,5.38-3.82,6.39-18.32,13.05-36.54,19.33-54.89,1.31-3.83,3.2-5,7.11-5q48.73.21,97.46,0c2.93,0,4.3.77,5.29,3.71,6.2,18.38,12.81,36.62,18.88,55,1.25,3.81,2.91,4.7,6.6,4.6,9.16-.26,18.32-.09,27.49-.09,9.33,0,18.66-.19,28,.09C-67.85,1051.71-66.54,1051.31-68.3,1046.71ZM-217.2,941.17c-7.5,0-15-.12-22.49.05-3.33.08-4.33-.84-3.16-4.14,4.16-11.72,8.11-23.52,12.27-35.25q10.83-30.48,21.85-60.89c.42-1.17.44-2.7,2.32-3.51l35.73,103.73Z" transform="translate(938.11 -765.96)"/><path class="cls-2" d="M685.63,1048.32c-2.85-8.06-4-16.45-4.69-24.93-1.94-23.12-.36-46.29-.94-65.25,0-22.67-.4-41.18.1-59.66.71-26.17-14.65-43.1-36.13-51.22-21.72-8.21-44.49-9-67.41-7.63-19.12,1.15-37.54,4.53-54.1,15.08-18.31,11.67-29,27.88-30.86,49.67-.18,2.16-.72,4.29,2.89,4.28,16.15-.06,32.31.06,48.47.19,3.68,0,5.4-1.22,6.25-5.2,2.28-10.69,7.12-19.37,18.65-23.18,14.62-4.84,28.8-4.45,42.78,1.7,10.57,4.65,12.13,14.14,12.18,24.19,0,8.84-5.48,13.56-13,16.41A93.77,93.77,0,0,1,587.08,928c-19.65,2.29-39.34,4.24-58.46,9.8-29.39,8.56-43.93,27.6-43.92,58,0,29.26,14.17,49.35,42.54,57,33.69,9.08,65.62,4.71,94-17,2.78-2.12,3.62-2,4.27,1.35.72,3.75,1.67,7.46,2.63,11.16.55,2.12,1.76,3.21,4.28,3.19q25.49-.17,51,0C686.11,1051.56,686.47,1050.7,685.63,1048.32Zm-66.26-54.81c-5.94,16.64-18.92,23.59-35.48,25.43a60,60,0,0,1-26.06-2.87c-9.16-3.08-14.21-9.52-15.58-18.87s.46-17.91,8-24.44,17-9,26.53-10.54c15.36-2.49,31.09-3.16,46-10.63C623.19,966.31,624.13,980.16,619.36,993.51Z" transform="translate(938.11 -765.96)"/><path class="cls-2" d="M1057.83,912.85c-7.87-27.61-23.28-49.44-49-63.15-23.07-12.29-47.57-12.67-72.39-7.58-25.14,5.15-45.92,17.77-60.22,39.36-23.18,35-27,72.51-12.69,111.87,7.81,21.51,20.5,39.28,41.41,49.72,29.93,14.94,61.33,18.47,93.48,8.73,31.77-9.62,50.55-32.18,60.24-63.77-16.08,0-31.7,0-47.32,0a3.65,3.65,0,0,0-3.55,2.21c-10.17,19.42-36.73,28.69-61.57,21.7-19.8-5.57-32.9-22.6-32.31-43.15.19-6.62.2-6.64,6.73-6.64,45.66,0,91.32-.09,137,.13,4.59,0,5.35-1.4,5.51-5.52A139.93,139.93,0,0,0,1057.83,912.85ZM1000,925.37c-13.66,0-27.32,0-41,0q-19.49,0-39,0c-6.11,0-6.16-.4-5.61-6.69,1.6-18.37,19-34.75,38.65-36.47,15.52-1.35,29.93,1.46,40.83,13.91,6.49,7.42,8.91,16.52,10.14,26.07C1004.48,925.82,1002,925.36,1000,925.37Z" transform="translate(938.11 -765.96)"/></svg>